# xmcd
# 
# Track frame offsets:
#     182
#     14582
#     26057
#     37757
#     54687
#     66312
#     80957
#     97082
#     115607
#     124457
#     139260
#     148607
#     162387
#     175757
#     184532
#     201407
#     241737
#     270857
#     286157
# 
# Disc length: 4097
# 
# Revision: 11
# Processed by: cddbd v1.5.2PL0 Copyright (c) Steve Scherf et al.
# Submitted via: fre:ac v1.1beta1pre5
# 
DISCID=160fff13
DTITLE=Pascal Rogé - Satie, Erik: After The Rain...
DYEAR=1995
DGENRE=Piano Solo
TTITLE0=Gymnopédie No. 1
TTITLE1=Gymnopédie No. 2
TTITLE2=Gymnopédie No. 3
TTITLE3=Gnossienne No. 1
TTITLE4=Gnossienne No. 2
TTITLE5=Gnossienne No. 3
TTITLE6=Gnossienne No. 4
TTITLE7=Gnossienne No. 5
TTITLE8=Gnossienne No. 6
TTITLE9=Nocturne I
TTITLE10=Nocturne II
TTITLE11=Nocturne III
TTITLE12=Nocturne IV
TTITLE13=Nocturne V
TTITLE14=Avant-dernieres pensées (I Idylle, à Debussy, II Aubade, à Paul Dukas, III Meditation, à Albert Roussel)
TTITLE15=Pieces froides - Trois airs à fuir
TTITLE16=Pieces froides - Trois danses de travers
TTITLE17=Deux reveries nocturnes
TTITLE18=Prélude de la porte héroïque du ciel
EXTD=
EXTT0=
EXTT1=
EXTT2=
EXTT3=
EXTT4=
EXTT5=
EXTT6=
EXTT7=
EXTT8=
EXTT9=
EXTT10=
EXTT11=
EXTT12=
EXTT13=
EXTT14=
EXTT15=
EXTT16=
EXTT17=
EXTT18=
PLAYORDER=
